<mxfile modified="2024-07-19T05:07:51.503Z" host="app.diagrams.net" agent="Mozilla/5.0 (X11; Linux x86_64) AppleWebKit/537.36 (KHTML, like Gecko) Chrome/126.0.0.0 Safari/537.36" etag="2z4678ej_m3GFx2fVFVD" version="24.7.1" type="device">
  <diagram id="Ht1M8jgEwFfnCIfOTk4-" name="Page-1">
    <mxGraphModel dx="1887" dy="1683" grid="1" gridSize="10" guides="1" tooltips="1" connect="1" arrows="1" fold="1" page="1" pageScale="1" pageWidth="1169" pageHeight="827" math="0" shadow="0">
      <root>
        <mxCell id="0" />
        <mxCell id="1" parent="0" />
        <mxCell id="X4idZgJUlP_n8RxJT98M-1" value="VPC" style="points=[[0,0],[0.25,0],[0.5,0],[0.75,0],[1,0],[1,0.25],[1,0.5],[1,0.75],[1,1],[0.75,1],[0.5,1],[0.25,1],[0,1],[0,0.75],[0,0.5],[0,0.25]];outlineConnect=0;gradientColor=none;html=1;whiteSpace=wrap;fontSize=12;fontStyle=0;container=1;pointerEvents=0;collapsible=0;recursiveResize=0;shape=mxgraph.aws4.group;grIcon=mxgraph.aws4.group_vpc2;strokeColor=#8C4FFF;fillColor=none;verticalAlign=top;align=left;spacingLeft=30;fontColor=#AAB7B8;dashed=0;" vertex="1" parent="1">
          <mxGeometry x="190" y="110" width="690" height="520" as="geometry" />
        </mxCell>
        <mxCell id="X4idZgJUlP_n8RxJT98M-2" value="Public subnet" style="points=[[0,0],[0.25,0],[0.5,0],[0.75,0],[1,0],[1,0.25],[1,0.5],[1,0.75],[1,1],[0.75,1],[0.5,1],[0.25,1],[0,1],[0,0.75],[0,0.5],[0,0.25]];outlineConnect=0;gradientColor=none;html=1;whiteSpace=wrap;fontSize=12;fontStyle=0;container=1;pointerEvents=0;collapsible=0;recursiveResize=0;shape=mxgraph.aws4.group;grIcon=mxgraph.aws4.group_security_group;grStroke=0;strokeColor=#7AA116;fillColor=#F2F6E8;verticalAlign=top;align=left;spacingLeft=30;fontColor=#248814;dashed=0;" vertex="1" parent="X4idZgJUlP_n8RxJT98M-1">
          <mxGeometry x="40" y="73" width="280" height="340" as="geometry" />
        </mxCell>
        <mxCell id="X4idZgJUlP_n8RxJT98M-10" value="" style="outlineConnect=0;dashed=0;verticalLabelPosition=bottom;verticalAlign=top;align=center;html=1;shape=mxgraph.aws3.ec2;fillColor=#F58534;gradientColor=none;" vertex="1" parent="X4idZgJUlP_n8RxJT98M-2">
          <mxGeometry x="70" y="90" width="96.5" height="93" as="geometry" />
        </mxCell>
        <mxCell id="X4idZgJUlP_n8RxJT98M-11" value="web server" style="text;html=1;align=center;verticalAlign=middle;whiteSpace=wrap;rounded=0;" vertex="1" parent="X4idZgJUlP_n8RxJT98M-2">
          <mxGeometry x="80" y="60" width="60" height="30" as="geometry" />
        </mxCell>
        <mxCell id="X4idZgJUlP_n8RxJT98M-14" value="" style="outlineConnect=0;dashed=0;verticalLabelPosition=bottom;verticalAlign=top;align=center;html=1;shape=mxgraph.aws3.ec2;fillColor=#F58534;gradientColor=none;" vertex="1" parent="X4idZgJUlP_n8RxJT98M-2">
          <mxGeometry x="130" y="209" width="80" height="80" as="geometry" />
        </mxCell>
        <mxCell id="X4idZgJUlP_n8RxJT98M-15" value="Bastion Host" style="text;html=1;align=center;verticalAlign=middle;whiteSpace=wrap;rounded=0;" vertex="1" parent="X4idZgJUlP_n8RxJT98M-2">
          <mxGeometry x="170" y="286" width="60" height="30" as="geometry" />
        </mxCell>
        <mxCell id="X4idZgJUlP_n8RxJT98M-27" style="edgeStyle=orthogonalEdgeStyle;rounded=0;orthogonalLoop=1;jettySize=auto;html=1;" edge="1" parent="X4idZgJUlP_n8RxJT98M-2" source="X4idZgJUlP_n8RxJT98M-25" target="X4idZgJUlP_n8RxJT98M-10">
          <mxGeometry relative="1" as="geometry">
            <Array as="points">
              <mxPoint x="118" y="203" />
            </Array>
          </mxGeometry>
        </mxCell>
        <mxCell id="X4idZgJUlP_n8RxJT98M-25" value="" style="verticalLabelPosition=bottom;html=1;verticalAlign=top;strokeWidth=1;align=center;outlineConnect=0;dashed=0;outlineConnect=0;shape=mxgraph.aws3d.ebs2;fillColor=#ECECEC;strokeColor=#5E5E5E;aspect=fixed;" vertex="1" parent="X4idZgJUlP_n8RxJT98M-2">
          <mxGeometry x="20" y="190" width="56.73" height="37" as="geometry" />
        </mxCell>
        <mxCell id="X4idZgJUlP_n8RxJT98M-26" value="EBS" style="text;html=1;align=center;verticalAlign=middle;whiteSpace=wrap;rounded=0;" vertex="1" parent="X4idZgJUlP_n8RxJT98M-2">
          <mxGeometry y="218" width="60" height="30" as="geometry" />
        </mxCell>
        <mxCell id="X4idZgJUlP_n8RxJT98M-7" value="" style="outlineConnect=0;dashed=0;verticalLabelPosition=bottom;verticalAlign=top;align=center;html=1;shape=mxgraph.aws3.vpc_nat_gateway;fillColor=#F58534;gradientColor=none;" vertex="1" parent="X4idZgJUlP_n8RxJT98M-1">
          <mxGeometry x="120" y="428" width="69" height="72" as="geometry" />
        </mxCell>
        <mxCell id="X4idZgJUlP_n8RxJT98M-9" value="NAT GW" style="text;html=1;align=center;verticalAlign=middle;whiteSpace=wrap;rounded=0;" vertex="1" parent="X4idZgJUlP_n8RxJT98M-1">
          <mxGeometry x="61" y="421" width="60" height="30" as="geometry" />
        </mxCell>
        <mxCell id="X4idZgJUlP_n8RxJT98M-17" value="Auto Scaling group" style="points=[[0,0],[0.25,0],[0.5,0],[0.75,0],[1,0],[1,0.25],[1,0.5],[1,0.75],[1,1],[0.75,1],[0.5,1],[0.25,1],[0,1],[0,0.75],[0,0.5],[0,0.25]];outlineConnect=0;gradientColor=none;html=1;whiteSpace=wrap;fontSize=12;fontStyle=0;container=1;pointerEvents=0;collapsible=0;recursiveResize=0;shape=mxgraph.aws4.groupCenter;grIcon=mxgraph.aws4.group_auto_scaling_group;grStroke=1;strokeColor=#D86613;fillColor=none;verticalAlign=top;align=center;fontColor=#D86613;dashed=1;spacingTop=25;" vertex="1" parent="X4idZgJUlP_n8RxJT98M-1">
          <mxGeometry x="37" y="32" width="290" height="130" as="geometry" />
        </mxCell>
        <mxCell id="X4idZgJUlP_n8RxJT98M-3" value="Private subnet" style="points=[[0,0],[0.25,0],[0.5,0],[0.75,0],[1,0],[1,0.25],[1,0.5],[1,0.75],[1,1],[0.75,1],[0.5,1],[0.25,1],[0,1],[0,0.75],[0,0.5],[0,0.25]];outlineConnect=0;gradientColor=none;html=1;whiteSpace=wrap;fontSize=12;fontStyle=0;container=1;pointerEvents=0;collapsible=0;recursiveResize=0;shape=mxgraph.aws4.group;grIcon=mxgraph.aws4.group_security_group;grStroke=0;strokeColor=#00A4A6;fillColor=#E6F6F7;verticalAlign=top;align=left;spacingLeft=30;fontColor=#147EBA;dashed=0;" vertex="1" parent="1">
          <mxGeometry x="590" y="200" width="280" height="310" as="geometry" />
        </mxCell>
        <mxCell id="X4idZgJUlP_n8RxJT98M-12" value="" style="outlineConnect=0;dashed=0;verticalLabelPosition=bottom;verticalAlign=top;align=center;html=1;shape=mxgraph.aws3.ec2;fillColor=#F58534;gradientColor=none;" vertex="1" parent="X4idZgJUlP_n8RxJT98M-3">
          <mxGeometry x="80" y="90" width="96.5" height="93" as="geometry" />
        </mxCell>
        <mxCell id="X4idZgJUlP_n8RxJT98M-13" value="database" style="text;html=1;align=center;verticalAlign=middle;whiteSpace=wrap;rounded=0;" vertex="1" parent="X4idZgJUlP_n8RxJT98M-3">
          <mxGeometry x="98.25" y="60" width="60" height="30" as="geometry" />
        </mxCell>
        <mxCell id="X4idZgJUlP_n8RxJT98M-28" style="edgeStyle=orthogonalEdgeStyle;rounded=0;orthogonalLoop=1;jettySize=auto;html=1;" edge="1" parent="X4idZgJUlP_n8RxJT98M-3" source="X4idZgJUlP_n8RxJT98M-23" target="X4idZgJUlP_n8RxJT98M-12">
          <mxGeometry relative="1" as="geometry" />
        </mxCell>
        <mxCell id="X4idZgJUlP_n8RxJT98M-23" value="" style="verticalLabelPosition=bottom;html=1;verticalAlign=top;strokeWidth=1;align=center;outlineConnect=0;dashed=0;outlineConnect=0;shape=mxgraph.aws3d.ebs2;fillColor=#ECECEC;strokeColor=#5E5E5E;aspect=fixed;" vertex="1" parent="X4idZgJUlP_n8RxJT98M-3">
          <mxGeometry x="82.5" y="210" width="92" height="60" as="geometry" />
        </mxCell>
        <mxCell id="X4idZgJUlP_n8RxJT98M-24" value="EBS" style="text;html=1;align=center;verticalAlign=middle;whiteSpace=wrap;rounded=0;" vertex="1" parent="X4idZgJUlP_n8RxJT98M-3">
          <mxGeometry x="158.25" y="250" width="60" height="30" as="geometry" />
        </mxCell>
        <mxCell id="X4idZgJUlP_n8RxJT98M-5" style="edgeStyle=orthogonalEdgeStyle;rounded=0;orthogonalLoop=1;jettySize=auto;html=1;entryX=0.25;entryY=0;entryDx=0;entryDy=0;" edge="1" parent="1" source="X4idZgJUlP_n8RxJT98M-4" target="X4idZgJUlP_n8RxJT98M-2">
          <mxGeometry relative="1" as="geometry" />
        </mxCell>
        <mxCell id="X4idZgJUlP_n8RxJT98M-4" value="" style="outlineConnect=0;dashed=0;verticalLabelPosition=bottom;verticalAlign=top;align=center;html=1;shape=mxgraph.aws3.internet_gateway;fillColor=#F58534;gradientColor=none;" vertex="1" parent="1">
          <mxGeometry x="420" y="10" width="69" height="72" as="geometry" />
        </mxCell>
        <mxCell id="X4idZgJUlP_n8RxJT98M-6" value="internet gateway" style="text;html=1;align=center;verticalAlign=middle;whiteSpace=wrap;rounded=0;" vertex="1" parent="1">
          <mxGeometry x="370" y="31" width="60" height="30" as="geometry" />
        </mxCell>
        <mxCell id="X4idZgJUlP_n8RxJT98M-8" style="edgeStyle=orthogonalEdgeStyle;rounded=0;orthogonalLoop=1;jettySize=auto;html=1;" edge="1" parent="1">
          <mxGeometry relative="1" as="geometry">
            <mxPoint x="379" y="570" as="sourcePoint" />
            <mxPoint x="590" y="435" as="targetPoint" />
            <Array as="points">
              <mxPoint x="560" y="570" />
              <mxPoint x="560" y="435" />
            </Array>
          </mxGeometry>
        </mxCell>
        <mxCell id="X4idZgJUlP_n8RxJT98M-21" style="edgeStyle=orthogonalEdgeStyle;rounded=0;orthogonalLoop=1;jettySize=auto;html=1;" edge="1" parent="1" source="X4idZgJUlP_n8RxJT98M-20" target="X4idZgJUlP_n8RxJT98M-10">
          <mxGeometry relative="1" as="geometry" />
        </mxCell>
        <mxCell id="X4idZgJUlP_n8RxJT98M-20" value="" style="sketch=0;points=[[0,0,0],[0.25,0,0],[0.5,0,0],[0.75,0,0],[1,0,0],[0,1,0],[0.25,1,0],[0.5,1,0],[0.75,1,0],[1,1,0],[0,0.25,0],[0,0.5,0],[0,0.75,0],[1,0.25,0],[1,0.5,0],[1,0.75,0]];outlineConnect=0;fontColor=#232F3E;fillColor=#ED7100;strokeColor=#ffffff;dashed=0;verticalLabelPosition=bottom;verticalAlign=top;align=center;html=1;fontSize=12;fontStyle=0;aspect=fixed;shape=mxgraph.aws4.resourceIcon;resIcon=mxgraph.aws4.ecr;" vertex="1" parent="1">
          <mxGeometry x="20" y="240" width="110" height="110" as="geometry" />
        </mxCell>
        <mxCell id="X4idZgJUlP_n8RxJT98M-22" value="Elactic Container Registry" style="text;html=1;align=center;verticalAlign=middle;whiteSpace=wrap;rounded=0;" vertex="1" parent="1">
          <mxGeometry x="30" y="197" width="70" height="30" as="geometry" />
        </mxCell>
        <mxCell id="X4idZgJUlP_n8RxJT98M-30" style="edgeStyle=orthogonalEdgeStyle;rounded=0;orthogonalLoop=1;jettySize=auto;html=1;" edge="1" parent="1" target="X4idZgJUlP_n8RxJT98M-25">
          <mxGeometry relative="1" as="geometry">
            <mxPoint x="499" y="725" as="sourcePoint" />
            <mxPoint x="250" y="379" as="targetPoint" />
            <Array as="points">
              <mxPoint x="499" y="736" />
              <mxPoint x="150" y="736" />
              <mxPoint x="150" y="390" />
            </Array>
          </mxGeometry>
        </mxCell>
        <mxCell id="X4idZgJUlP_n8RxJT98M-31" style="edgeStyle=orthogonalEdgeStyle;rounded=0;orthogonalLoop=1;jettySize=auto;html=1;" edge="1" parent="1" target="X4idZgJUlP_n8RxJT98M-23">
          <mxGeometry relative="1" as="geometry">
            <mxPoint x="940" y="440" as="sourcePoint" />
            <Array as="points" />
          </mxGeometry>
        </mxCell>
        <mxCell id="X4idZgJUlP_n8RxJT98M-33" value="" style="edgeStyle=orthogonalEdgeStyle;rounded=0;orthogonalLoop=1;jettySize=auto;html=1;" edge="1" parent="1" source="X4idZgJUlP_n8RxJT98M-29">
          <mxGeometry relative="1" as="geometry">
            <mxPoint x="499" y="726" as="sourcePoint" />
            <mxPoint x="940" y="428" as="targetPoint" />
            <Array as="points">
              <mxPoint x="940" y="737" />
              <mxPoint x="940" y="428" />
            </Array>
          </mxGeometry>
        </mxCell>
        <mxCell id="X4idZgJUlP_n8RxJT98M-34" style="edgeStyle=orthogonalEdgeStyle;rounded=0;orthogonalLoop=1;jettySize=auto;html=1;" edge="1" parent="1" source="X4idZgJUlP_n8RxJT98M-32" target="X4idZgJUlP_n8RxJT98M-12">
          <mxGeometry relative="1" as="geometry" />
        </mxCell>
        <mxCell id="X4idZgJUlP_n8RxJT98M-32" value="AWS Secrets Manager" style="sketch=0;outlineConnect=0;fontColor=#232F3E;gradientColor=none;strokeColor=#ffffff;fillColor=#232F3E;dashed=0;verticalLabelPosition=middle;verticalAlign=bottom;align=center;html=1;whiteSpace=wrap;fontSize=10;fontStyle=1;spacing=3;shape=mxgraph.aws4.productIcon;prIcon=mxgraph.aws4.secrets_manager;" vertex="1" parent="1">
          <mxGeometry x="950" y="200" width="80" height="110" as="geometry" />
        </mxCell>
        <mxCell id="X4idZgJUlP_n8RxJT98M-35" value="" style="edgeStyle=orthogonalEdgeStyle;rounded=0;orthogonalLoop=1;jettySize=auto;html=1;" edge="1" parent="1" target="X4idZgJUlP_n8RxJT98M-29">
          <mxGeometry relative="1" as="geometry">
            <mxPoint x="499" y="726" as="sourcePoint" />
            <mxPoint x="940" y="428" as="targetPoint" />
            <Array as="points" />
          </mxGeometry>
        </mxCell>
        <mxCell id="X4idZgJUlP_n8RxJT98M-29" value="" style="sketch=0;points=[[0,0,0],[0.25,0,0],[0.5,0,0],[0.75,0,0],[1,0,0],[0,1,0],[0.25,1,0],[0.5,1,0],[0.75,1,0],[1,1,0],[0,0.25,0],[0,0.5,0],[0,0.75,0],[1,0.25,0],[1,0.5,0],[1,0.75,0]];outlineConnect=0;fontColor=#232F3E;fillColor=#DD344C;strokeColor=#ffffff;dashed=0;verticalLabelPosition=bottom;verticalAlign=top;align=center;html=1;fontSize=12;fontStyle=0;aspect=fixed;shape=mxgraph.aws4.resourceIcon;resIcon=mxgraph.aws4.key_management_service;" vertex="1" parent="1">
          <mxGeometry x="470" y="680" width="78" height="78" as="geometry" />
        </mxCell>
        <mxCell id="X4idZgJUlP_n8RxJT98M-37" style="edgeStyle=orthogonalEdgeStyle;rounded=0;orthogonalLoop=1;jettySize=auto;html=1;" edge="1" parent="1" source="X4idZgJUlP_n8RxJT98M-36" target="X4idZgJUlP_n8RxJT98M-10">
          <mxGeometry relative="1" as="geometry">
            <Array as="points">
              <mxPoint x="540" y="30" />
              <mxPoint x="540" y="320" />
            </Array>
          </mxGeometry>
        </mxCell>
        <mxCell id="X4idZgJUlP_n8RxJT98M-36" value="" style="sketch=0;points=[[0,0,0],[0.25,0,0],[0.5,0,0],[0.75,0,0],[1,0,0],[0,1,0],[0.25,1,0],[0.5,1,0],[0.75,1,0],[1,1,0],[0,0.25,0],[0,0.5,0],[0,0.75,0],[1,0.25,0],[1,0.5,0],[1,0.75,0]];points=[[0,0,0],[0.25,0,0],[0.5,0,0],[0.75,0,0],[1,0,0],[0,1,0],[0.25,1,0],[0.5,1,0],[0.75,1,0],[1,1,0],[0,0.25,0],[0,0.5,0],[0,0.75,0],[1,0.25,0],[1,0.5,0],[1,0.75,0]];outlineConnect=0;fontColor=#232F3E;fillColor=#E7157B;strokeColor=#ffffff;dashed=0;verticalLabelPosition=bottom;verticalAlign=top;align=center;html=1;fontSize=12;fontStyle=0;aspect=fixed;shape=mxgraph.aws4.resourceIcon;resIcon=mxgraph.aws4.cloudwatch_2;" vertex="1" parent="1">
          <mxGeometry x="640" y="-10" width="78" height="78" as="geometry" />
        </mxCell>
        <mxCell id="X4idZgJUlP_n8RxJT98M-40" style="edgeStyle=orthogonalEdgeStyle;rounded=0;orthogonalLoop=1;jettySize=auto;html=1;" edge="1" parent="1" source="X4idZgJUlP_n8RxJT98M-14" target="X4idZgJUlP_n8RxJT98M-12">
          <mxGeometry relative="1" as="geometry">
            <Array as="points">
              <mxPoint x="490" y="432" />
              <mxPoint x="490" y="340" />
            </Array>
          </mxGeometry>
        </mxCell>
        <mxCell id="X4idZgJUlP_n8RxJT98M-41" value="AWS Cloud WAtch" style="text;html=1;align=center;verticalAlign=middle;whiteSpace=wrap;rounded=0;" vertex="1" parent="1">
          <mxGeometry x="722" y="-20" width="60" height="30" as="geometry" />
        </mxCell>
      </root>
    </mxGraphModel>
  </diagram>
</mxfile>
